<svg fill="#70C041" xmlns:dc="http://purl.org/dc/elements/1.1/" xmlns:cc="http://creativecommons.org/ns#" xmlns:rdf="http://www.w3.org/1999/02/22-rdf-syntax-ns#" xmlns:svg="http://www.w3.org/2000/svg" xmlns="http://www.w3.org/2000/svg" xmlns:sodipodi="http://sodipodi.sourceforge.net/DTD/sodipodi-0.dtd" xmlns:inkscape="http://www.inkscape.org/namespaces/inkscape" version="1.1" x="0px" y="0px" viewBox="0 0 100 100"><g transform="translate(0,-952.36218)"><path style="text-indent:0;text-transform:none;direction:ltr;block-progression:tb;baseline-shift:baseline;color:#000000;enable-background:accumulate;" d="m 28,957.36218 c -4.940429,0 -9,3.5216 -9,8 l 0,78.00002 c 2.31e-4,1.0182 0.222528,2.1636 1.09375,3 0.871222,0.8364 1.969697,0.9997 2.90625,1 a 2.0002,2.0002 0 0 0 1.125,-0.3438 l 25.875,-17.25 25.875,17.25 a 2.0002,2.0002 0 0 0 1.125,0.3438 c 0.93655,-3e-4 2.03503,-0.1636 2.90625,-1 0.87122,-0.8364 1.09352,-1.9818 1.09375,-3 l 0,-78.00002 c 0,-4.4784 -4.05958,-8 -9,-8 l -44,0 z m 0,4 44,0 c 3.140239,0 5,1.9334 5,4 l 0,77.56252 -25.875,-17.25 a 2.0002,2.0002 0 0 0 -2.25,0 l -25.875,17.25 0,-77.56252 c 0,-2.0666 1.859749,-4 5,-4 z m 8,25 c -1.1046,0 -2,0.8954 -2,2 0,1.1046 0.8954,2 2,2 l 28,0 c 1.1046,0 2,-0.8954 2,-2 0,-1.1046 -0.8954,-2 -2,-2 l -28,0 z" fill="#70C041" fill-opacity="1" stroke="none" marker="none" visibility="visible" display="inline" overflow="visible"></path></g></svg>