<?xml version="1.0" encoding="UTF-8" standalone="no"?>
<!-- Generated by IcoMoon.io -->

<svg
   xmlns:dc="http://purl.org/dc/elements/1.1/"
   xmlns:cc="http://creativecommons.org/ns#"
   xmlns:rdf="http://www.w3.org/1999/02/22-rdf-syntax-ns#"
   xmlns:svg="http://www.w3.org/2000/svg"
   xmlns="http://www.w3.org/2000/svg"
   xmlns:sodipodi="http://sodipodi.sourceforge.net/DTD/sodipodi-0.dtd"
   xmlns:inkscape="http://www.inkscape.org/namespaces/inkscape"
   version="1.1"
   width="24"
   height="24"
   viewBox="0 0 24 24"
   id="svg2"
   inkscape:version="0.48.5 r10040"
   sodipodi:docname="draft_48px.svg">
  <metadata
     id="metadata10">
    <rdf:RDF>
      <cc:Work
         rdf:about="">
        <dc:format>image/svg+xml</dc:format>
        <dc:type
           rdf:resource="http://purl.org/dc/dcmitype/StillImage" />
        <dc:title></dc:title>
      </cc:Work>
    </rdf:RDF>
  </metadata>
  <defs
     id="defs8" />
  <sodipodi:namedview
     pagecolor="#ffffff"
     bordercolor="#666666"
     borderopacity="1"
     objecttolerance="10"
     gridtolerance="10"
     guidetolerance="10"
     inkscape:pageopacity="0"
     inkscape:pageshadow="2"
     inkscape:window-width="1867"
     inkscape:window-height="922"
     id="namedview6"
     showgrid="false"
     inkscape:zoom="14.960938"
     inkscape:cx="19.775445"
     inkscape:cy="16"
     inkscape:window-x="0"
     inkscape:window-y="0"
     inkscape:window-maximized="0"
     inkscape:current-layer="svg2" />
  <path
     d="m 19.198444,18.667444 c 0,0 0,-2.63978 0,-2.63978 0,0 2.666778,0 2.666778,0 0,0 0,2.63978 0,2.63978 0,0 -2.666778,0 -2.666778,0 z m 0,5.332556 c 0,0 0,-2.666778 0,-2.666778 0,0 2.666778,0 2.666778,0 0,0 0,1.332889 0,1.332889 0,0.372969 -0.128989,0.688943 -0.386968,0.946921 C 21.220276,23.871011 20.905302,24 20.531333,24 c 0,0 -1.332889,0 -1.332889,0 z M 12.532,24 c 0,0 0,-2.666778 0,-2.666778 0,0 3.972669,0 3.972669,0 0,0 0,2.666778 0,2.666778 0,0 -3.972669,0 -3.972669,0 z m -6.6654445,0 c 0,0 0,-2.666778 0,-2.666778 0,0 3.9996665,0 3.9996665,0 0,0 0,2.666778 0,2.666778 0,0 -3.9996665,0 -3.9996665,0 z M 0.533,22.667111 c 0,0 0,-1.332889 0,-1.332889 0,0 2.6667777,0 2.6667777,0 0,0 0,2.666778 0,2.666778 0,0 -1.3328889,0 -1.3328889,0 -0.3729689,0 -0.6889426,-0.12899 -0.94692105,-0.386968 C 0.66198925,23.356053 0.533,23.04108 0.533,22.667111 z m 0,-3.999667 c 0,0 0,-2.666778 0,-2.666778 0,0 2.6667777,0 2.6667777,0 0,0 0,2.666778 0,2.666778 0,0 -2.6667777,0 -2.6667777,0 z m 0,-10.6661105 c 0,0 0,-2.666778 0,-2.666778 0,0 2.6667777,0 2.6667777,0 0,0 0,2.666778 0,2.666778 0,0 -2.6667777,0 -2.6667777,0 z m 0,5.3325555 c 0,0 0,-2.666778 0,-2.666778 0,0 2.6667777,0 2.6667777,0 0,0 0,2.666778 0,2.666778 0,0 -2.6667777,0 -2.6667777,0 z m 0,-11.999 C 0.533,0.96192 0.66198925,0.645946 0.91996775,0.387968 1.1779462,0.1299895 1.49292,0.001 1.8668888,0.001 c 0,0 1.3328889,0 1.3328889,0 0,0 0,2.666778 0,2.666778 0,0 -2.6667777,0 -2.6667777,0 0,0 0,-1.332889 0,-1.332889 z m 5.3335555,1.3338885 c 0,0 0,-2.6667775 0,-2.6667775 0,0 2.63978,0 2.63978,0 0,0 0,2.6667775 0,2.6667775 0,0 -2.63978,0 -2.63978,0 z m 15.1187395,4.07966 c 0.586951,0.2129825 0.879927,0.6309475 0.879927,1.252896 0,0 0,5.3325555 0,5.3325555 0,0 -2.666778,0 -2.666778,0 0,0 0,-3.999667 0,-3.999667 0,0 -3.999666,0 -3.999666,0 -0.372969,0 -0.688943,-0.128989 -0.946921,-0.3869675 -0.257979,-0.2579785 -0.386968,-0.5729525 -0.386968,-0.946921 0,0 0,-5.332556 0,-5.332556 0,0 -2.666778,0 -2.666778,0 0,0 0,-2.6667775 0,-2.6667775 0,0 3.999667,0 3.999667,0 0.372969,0 0.688942,0.128989 0.946921,0.3869675 0.257978,0.2579785 0.386968,0.5729525 0.386968,0.9469215 0,0 0,5.3325555 0,5.3325555 0,0 3.999666,0 3.999666,0 0.177985,0 0.328973,0.027 0.452962,0.079993 z"
     id="path4"
     style="fill:#000000"
     inkscape:connector-curvature="0" />
</svg>
