<?xml version="1.0" encoding="UTF-8" standalone="no"?>
<!-- Generated by IcoMoon.io -->

<svg
   xmlns:dc="http://purl.org/dc/elements/1.1/"
   xmlns:cc="http://creativecommons.org/ns#"
   xmlns:rdf="http://www.w3.org/1999/02/22-rdf-syntax-ns#"
   xmlns:svg="http://www.w3.org/2000/svg"
   xmlns="http://www.w3.org/2000/svg"
   xmlns:sodipodi="http://sodipodi.sourceforge.net/DTD/sodipodi-0.dtd"
   xmlns:inkscape="http://www.inkscape.org/namespaces/inkscape"
   version="1.1"
   width="48"
   height="48"
   viewBox="0 0 48.000001 48"
   id="svg2"
   inkscape:version="0.48.5 r10040"
   sodipodi:docname="draft.svg">
  <metadata
     id="metadata10">
    <rdf:RDF>
      <cc:Work
         rdf:about="">
        <dc:format>image/svg+xml</dc:format>
        <dc:type
           rdf:resource="http://purl.org/dc/dcmitype/StillImage" />
        <dc:title></dc:title>
      </cc:Work>
    </rdf:RDF>
  </metadata>
  <defs
     id="defs8" />
  <sodipodi:namedview
     pagecolor="#ffffff"
     bordercolor="#666666"
     borderopacity="1"
     objecttolerance="10"
     gridtolerance="10"
     guidetolerance="10"
     inkscape:pageopacity="0"
     inkscape:pageshadow="2"
     inkscape:window-width="974"
     inkscape:window-height="922"
     id="namedview6"
     showgrid="false"
     fit-margin-top="0"
     fit-margin-left="0"
     fit-margin-right="0"
     fit-margin-bottom="0"
     inkscape:zoom="4.92"
     inkscape:cx="38.617304"
     inkscape:cy="20.753478"
     inkscape:window-x="0"
     inkscape:window-y="0"
     inkscape:window-maximized="0"
     inkscape:current-layer="svg2" />
  <path
     d="m 37.33089,37.332889 c 0,0 0,-5.279561 0,-5.279561 0,0 5.333556,0 5.333556,0 0,0 0,5.279561 0,5.279561 0,0 -5.333556,0 -5.333556,0 z m 0,10.665111 c 0,0 0,-5.333556 0,-5.333556 0,0 5.333556,0 5.333556,0 0,0 0,2.665779 0,2.665779 0,0.745938 -0.257979,1.377884 -0.773936,1.893841 -0.515957,0.515958 -1.145905,0.773936 -1.893842,0.773936 0,0 -2.665778,0 -2.665778,0 z m -13.332889,0 c 0,0 0,-5.333556 0,-5.333556 0,0 7.945338,0 7.945338,0 0,0 0,5.333556 0,5.333556 0,0 -7.945338,0 -7.945338,0 z m -13.33089,0 c 0,0 0,-5.333556 0,-5.333556 0,0 7.999334,0 7.999334,0 0,0 0,5.333556 0,5.333556 0,0 -7.999334,0 -7.999334,0 z M 0,45.332222 c 0,0 0,-2.665778 0,-2.665778 0,0 5.3335556,0 5.3335556,0 0,0 0,5.333556 0,5.333556 0,0 -2.6657778,0 -2.6657778,0 C 1.9218399,48 1.2898926,47.742021 0.77393552,47.226064 0.25797851,46.710107 0,46.08016 0,45.332222 z m 0,-7.999333 c 0,0 0,-5.333556 0,-5.333556 0,0 5.3335556,0 5.3335556,0 0,0 0,5.333556 0,5.333556 0,0 -5.3335556,0 -5.3335556,0 z M 0,16.000666 c 0,0 0,-5.333556 0,-5.333556 0,0 5.3335556,0 5.3335556,0 0,0 0,5.333556 0,5.333556 0,0 -5.3335556,0 -5.3335556,0 z m 0,10.665112 c 0,0 0,-5.333556 0,-5.333556 0,0 5.3335556,0 5.3335556,0 0,0 0,5.333556 0,5.333556 0,0 -5.3335556,0 -5.3335556,0 z M 0,2.6677767 C 0,1.9218388 0.25797851,1.2898915 0.77393552,0.77393451 1.2898926,0.25797748 1.91984,-9.9999999e-7 2.6677778,-9.9999999e-7 c 0,0 2.6657778,0 2.6657778,0 0,0 0,5.33355559999999 0,5.33355559999999 0,0 -5.3335556,0 -5.3335556,0 0,0 0,-2.6657779 0,-2.6657779 z m 10.667111,2.6677778 c 0,0 0,-5.33355569 0,-5.33355569 0,0 5.279561,0 5.279561,0 0,0 0,5.33355569 0,5.33355569 0,0 -5.279561,0 -5.279561,0 z m 30.237481,8.1593205 c 1.173903,0.425964 1.759854,1.261895 1.759854,2.505791 0,0 0,10.665112 0,10.665112 0,0 -5.333556,0 -5.333556,0 0,0 0,-7.999334 0,-7.999334 0,0 -7.999334,0 -7.999334,0 -0.745937,0 -1.377885,-0.257978 -1.893842,-0.773936 -0.515957,-0.515957 -0.773936,-1.145904 -0.773936,-1.893842 0,0 0,-10.6651114 0,-10.6651114 0,0 -5.333555,0 -5.333555,0 0,0 0,-5.33355559999999 0,-5.33355559999999 0,0 7.999334,0 7.999334,0 0.745937,0 1.377885,0.25797847999999 1.893842,0.77393550999999 0.515957,0.51595699 0.773935,1.14590449 0.773935,1.89384219 0,0 0,10.6651113 0,10.6651113 0,0 7.999334,0 7.999334,0 0.35597,0 0.657945,0.054 0.905924,0.159987 z"
     id="path4"
     inkscape:connector-curvature="0"
     style="fill:#ffffff;fill-opacity:1" />
</svg>
