<?xml version="1.0" encoding="UTF-8" standalone="no"?><!DOCTYPE svg PUBLIC "-//W3C//DTD SVG 1.1//EN" "http://www.w3.org/Graphics/SVG/1.1/DTD/svg11.dtd"><svg width="100%" height="100%" viewBox="0 0 24 24" version="1.1" xmlns="http://www.w3.org/2000/svg" xmlns:xlink="http://www.w3.org/1999/xlink" xml:space="preserve" xmlns:serif="http://www.serif.com/" style="fill-rule:evenodd;clip-rule:evenodd;stroke-linejoin:round;stroke-miterlimit:1.41421;"><path d="M20.021,18.703l0,-2.64l2.667,0l0,2.64l-2.667,0Zm0,5.333l0,-2.666l2.667,0l0,1.333c0,0.747 -0.587,1.333 -1.333,1.333l-1.334,0Zm-6.666,0l0,-2.666l3.973,0l0,2.666l-3.973,0Zm-6.667,0l0,-2.666l4,0l0,2.666l-4,0Zm-5.333,-1.333l0,-1.333l2.666,0l0,2.666l-1.333,0c-0.747,0 -1.333,-0.586 -1.333,-1.333Zm0,-4l0,-2.667l2.666,0l0,2.667l-2.666,0Zm0,-10.667l0,-2.666l2.666,0l0,2.666l-2.666,0Zm0,5.334l0,-2.667l2.666,0l0,2.667l-2.666,0Zm0,-12c0,-0.747 0.586,-1.334 1.333,-1.334l1.333,0l0,2.667l-2.666,0l0,-1.333Zm5.333,1.333l0,-2.667l2.64,0l0,2.667l-2.64,0Zm15.12,4.08c0.507,0.187 0.88,0.667 0.88,1.253l0,5.334l-2.667,0l0,-4l-4,0c-0.746,0 -1.333,-0.587 -1.333,-1.334l0,-5.333l-2.667,0l0,-2.667l4,0c0.747,0 1.334,0.587 1.334,1.334l0,5.333l4,0c0.16,0 0.32,0.027 0.453,0.08Z" style="fill-rule:nonzero;"/></svg>