<?xml version="1.0" encoding="UTF-8" standalone="no"?>
<svg
   xmlns:dc="http://purl.org/dc/elements/1.1/"
   xmlns:cc="http://creativecommons.org/ns#"
   xmlns:rdf="http://www.w3.org/1999/02/22-rdf-syntax-ns#"
   xmlns:svg="http://www.w3.org/2000/svg"
   xmlns="http://www.w3.org/2000/svg"
   xmlns:sodipodi="http://sodipodi.sourceforge.net/DTD/sodipodi-0.dtd"
   xmlns:inkscape="http://www.inkscape.org/namespaces/inkscape"
   version="1.1"
   x="0px"
   y="0px"
   viewBox="0 0 100.00043 80.791"
   enable-background="new 0 0 100 100"
   xml:space="preserve"
   id="svg2"
   inkscape:version="0.91 r13725"
   sodipodi:docname="lunch.svg"
   width="100.00043"
   height="80.791"><metadata
     id="metadata18"><rdf:RDF><cc:Work
         rdf:about=""><dc:format>image/svg+xml</dc:format><dc:type
           rdf:resource="http://purl.org/dc/dcmitype/StillImage" /><dc:title></dc:title></cc:Work></rdf:RDF></metadata><defs
     id="defs16" /><sodipodi:namedview
     pagecolor="#ffffff"
     bordercolor="#666666"
     borderopacity="1"
     objecttolerance="10"
     gridtolerance="10"
     guidetolerance="10"
     inkscape:pageopacity="0"
     inkscape:pageshadow="2"
     inkscape:window-width="1368"
     inkscape:window-height="820"
     id="namedview14"
     showgrid="false"
     inkscape:zoom="4.6063363"
     inkscape:cx="80.616746"
     inkscape:cy="27.198369"
     inkscape:window-x="0"
     inkscape:window-y="0"
     inkscape:window-maximized="0"
     inkscape:current-layer="svg2"
     fit-margin-top="0"
     fit-margin-left="0"
     fit-margin-right="0"
     fit-margin-bottom="0" /><g
     id="g4"
     transform="translate(0.114,-9.307)"
     style="fill:#ffffff"><g
       id="g6"
       style="fill:#ffffff"><path
         d="m 60.139,48.233 c -1.157,0 -2.093,0.936 -2.093,2.093 0,1.157 0.936,2.093 2.093,2.093 1.157,0 2.094,-0.936 2.094,-2.093 0,-1.157 -0.937,-2.093 -2.094,-2.093 z m -8.373,4.186 c -1.157,0 -2.093,0.937 -2.093,2.094 0,1.157 0.937,2.093 2.093,2.093 1.157,0 2.094,-0.936 2.094,-2.093 0,-1.157 -0.937,-2.094 -2.094,-2.094 z M 97.141,65.49 c -0.647,-0.595 -1.601,-1.724 -2.512,-2.868 0.649,-0.355 1.095,-1.037 1.095,-1.83 0,-10.564 -12.872,-18.839 -29.305,-18.839 -16.434,0 -29.306,8.275 -29.306,18.839 0,0.439 0.136,0.846 0.367,1.183 l -1.683,2.353 c -0.184,0.222 -0.384,0.477 -0.586,0.752 l 1.695,-28.359 0.66,0 c 1.157,0 2.093,-0.937 2.093,-2.093 l 0,-7.118 c 0,-1.157 -0.937,-2.093 -2.093,-2.093 l -15.24,0 3.058,-15.288 -4.104,-0.822 -3.223,16.11 -16.078,0 c -1.157,0 -2.093,0.937 -2.093,2.093 l 0,7.118 c 0,1.09 0.835,1.975 1.899,2.074 L 4.86,88.129 c 0.065,1.106 0.981,1.969 2.089,1.969 l 24.794,0 c 1.108,0 2.023,-0.862 2.089,-1.969 l 0.96,-16.068 c 0.507,0.32 1.196,0.561 2.157,0.562 0.017,0 0.098,-0.002 0.163,-0.003 l 0,3.828 c 0,0.674 0.227,1.281 0.592,1.729 -0.365,0.376 -0.592,0.889 -0.592,1.455 0,5.771 4.696,10.466 10.466,10.466 l 37.679,0 c 5.771,0 10.466,-4.695 10.466,-10.466 0,-0.566 -0.227,-1.079 -0.592,-1.455 0.365,-0.448 0.592,-1.056 0.592,-1.729 l 0,-3.829 c 0.794,0 3.21,0 3.973,-1.956 0.809,-2.082 -1.134,-3.869 -2.555,-5.173 z m -67.37,20.421 -20.849,0 -2.942,-49.191 26.732,0 -2.941,49.191 z M 4.073,32.534 l 0,-2.932 31.399,0 0,2.932 -31.399,0 z M 66.419,46.14 c 12.399,0 23.048,5.566 24.851,12.56 l -49.703,0 C 43.37,51.706 54.019,46.14 66.419,46.14 Z m -18.84,39.771 c -2.729,0 -5.057,-1.75 -5.922,-4.187 l 29.807,0 3.097,4.187 -26.982,0 z m 26.033,-8.373 10.004,0 -4.904,6.946 -5.1,-6.946 z m 11.646,8.373 -2.394,0 3.097,-4.187 5.219,0 c -0.865,2.437 -3.194,4.187 -5.922,4.187 z m 6.279,-11.952 -50.238,0 0,-2.921 c 0.151,-0.112 0.298,-0.224 0.439,-0.336 l 5.011,0 c 1.087,0.935 2.57,1.916 5.016,1.916 2.446,0 3.907,-0.984 4.975,-1.916 l 4.711,0 c 1.067,0.931 2.529,1.916 4.968,1.916 2.425,0 3.864,-1.018 4.854,-1.916 l 4.921,0 c 0.987,0.902 2.428,1.916 4.878,1.916 2.448,0 3.928,-1.01 4.952,-1.916 l 4.936,0 c 0.18,0.154 0.374,0.31 0.578,0.464 l 0,2.793 z m -3.14,-9.021 c -2.373,0 -3.695,1.261 -4.663,2.183 -0.856,0.817 -1.373,1.311 -2.663,1.311 -1.234,0 -1.685,-0.441 -2.5,-1.243 -0.967,-0.95 -2.292,-2.25 -4.826,-2.25 -2.537,0 -3.874,1.302 -4.852,2.254 -0.819,0.8 -1.271,1.239 -2.475,1.239 -1.284,0 -1.824,-0.505 -2.722,-1.341 -0.975,-0.908 -2.308,-2.152 -4.605,-2.152 -2.297,0 -3.626,1.242 -4.599,2.152 -0.894,0.836 -1.436,1.341 -2.728,1.341 -1.322,0 -1.919,-0.55 -2.823,-1.38 -0.969,-0.894 -2.294,-2.113 -4.503,-2.113 -2.236,0 -3.712,1.197 -4.9,2.158 -0.493,0.4 -0.894,0.72 -1.271,0.944 0.245,-0.382 0.538,-0.789 0.84,-1.159 l 2.866,-3.996 47.573,0 c 0.629,0.844 1.623,2.148 2.631,3.36 -0.928,-0.69 -2.125,-1.308 -3.78,-1.308 z M 81.071,52.419 c -1.157,0 -2.094,0.937 -2.094,2.094 0,1.157 0.937,2.093 2.094,2.093 1.157,0 2.093,-0.936 2.093,-2.093 0,-1.157 -0.935,-2.094 -2.093,-2.094 z m -6.28,-2.093 c -1.156,0 -2.093,0.937 -2.093,2.093 0,1.157 0.937,2.094 2.093,2.094 1.157,0 2.094,-0.937 2.094,-2.094 0,-1.156 -0.937,-2.093 -2.094,-2.093 z m -8.372,2.093 c -1.157,0 -2.094,0.937 -2.094,2.094 0,1.157 0.937,2.093 2.094,2.093 1.156,0 2.093,-0.936 2.093,-2.093 0,-1.157 -0.937,-2.094 -2.093,-2.094 z"
         id="path8"
         inkscape:connector-curvature="0"
         style="fill:#ffffff" /></g></g></svg>